<svg width="40" height="40" viewBox="0 0 40 40" fill="none" xmlns="http://www.w3.org/2000/svg">
<path d="M0 10C0 4.47715 4.47715 0 10 0H30C35.5228 0 40 4.47715 40 10V30C40 35.5228 35.5228 40 30 40H10C4.47715 40 0 35.5228 0 30V10Z" fill="#00BC7D" fill-opacity="0.2"/>
<path d="M26.6667 16.6667H13.3333C12.8731 16.6667 12.5 17.0398 12.5 17.5V19.1667C12.5 19.6269 12.8731 20 13.3333 20H26.6667C27.1269 20 27.5 19.6269 27.5 19.1667V17.5C27.5 17.0398 27.1269 16.6667 26.6667 16.6667Z" stroke="#00D492" stroke-width="1.66667" stroke-linecap="round" stroke-linejoin="round"/>
<path d="M20 16.6667V27.5" stroke="#00D492" stroke-width="1.66667" stroke-linecap="round" stroke-linejoin="round"/>
<path d="M25.8334 20V25.8333C25.8334 26.2754 25.6578 26.6993 25.3453 27.0118C25.0327 27.3244 24.6088 27.5 24.1667 27.5H15.8334C15.3914 27.5 14.9675 27.3244 14.6549 27.0118C14.3423 26.6993 14.1667 26.2754 14.1667 25.8333V20" stroke="#00D492" stroke-width="1.66667" stroke-linecap="round" stroke-linejoin="round"/>
<path d="M16.2501 16.6667C15.6975 16.6667 15.1676 16.4472 14.7769 16.0565C14.3862 15.6658 14.1667 15.1359 14.1667 14.5833C14.1667 14.0308 14.3862 13.5009 14.7769 13.1102C15.1676 12.7195 15.6975 12.5 16.2501 12.5C17.054 12.486 17.8418 12.876 18.5107 13.6193C19.1796 14.3625 19.6986 15.4245 20.0001 16.6667C20.3015 15.4245 20.8205 14.3625 21.4895 13.6193C22.1584 12.876 22.9462 12.486 23.7501 12.5C24.3026 12.5 24.8325 12.7195 25.2232 13.1102C25.6139 13.5009 25.8334 14.0308 25.8334 14.5833C25.8334 15.1359 25.6139 15.6658 25.2232 16.0565C24.8325 16.4472 24.3026 16.6667 23.7501 16.6667" stroke="#00D492" stroke-width="1.66667" stroke-linecap="round" stroke-linejoin="round"/>
</svg>
