<svg width="40" height="40" viewBox="0 0 40 40" fill="none" xmlns="http://www.w3.org/2000/svg">
<path d="M0 10C0 4.47715 4.47715 0 10 0H30C35.5228 0 40 4.47715 40 10V30C40 35.5228 35.5228 40 30 40H10C4.47715 40 0 35.5228 0 30V10Z" fill="url(#paint0_linear_5_2088)"/>
<path d="M18.3333 22.2166V23.5716C18.3301 23.8571 18.2537 24.137 18.1112 24.3845C17.9688 24.632 17.7652 24.8387 17.5199 24.9849C16.9992 25.3706 16.5756 25.8724 16.2828 26.4504C15.99 27.0285 15.8361 27.6669 15.8333 28.3149" stroke="#51A2FF" stroke-width="1.66667" stroke-linecap="round" stroke-linejoin="round"/>
<path d="M21.6667 22.2166V23.5716C21.6699 23.8571 21.7463 24.137 21.8888 24.3845C22.0312 24.632 22.2348 24.8387 22.4801 24.9849C23.0008 25.3706 23.4244 25.8724 23.7172 26.4504C24.01 27.0285 24.1639 27.6669 24.1667 28.3149" stroke="#51A2FF" stroke-width="1.66667" stroke-linecap="round" stroke-linejoin="round"/>
<path d="M25 17.4999H26.25C26.8025 17.4999 27.3324 17.2804 27.7231 16.8897C28.1138 16.499 28.3333 15.9691 28.3333 15.4166C28.3333 14.8641 28.1138 14.3341 27.7231 13.9434C27.3324 13.5527 26.8025 13.3333 26.25 13.3333H25" stroke="#51A2FF" stroke-width="1.66667" stroke-linecap="round" stroke-linejoin="round"/>
<path d="M13.3333 28.3333H26.6666" stroke="#51A2FF" stroke-width="1.66667" stroke-linecap="round" stroke-linejoin="round"/>
<path d="M15 17.5001C15 18.8262 15.5268 20.0979 16.4645 21.0356C17.4021 21.9733 18.6739 22.5001 20 22.5001C21.3261 22.5001 22.5979 21.9733 23.5355 21.0356C24.4732 20.0979 25 18.8262 25 17.5001V12.5001C25 12.2791 24.9122 12.0671 24.7559 11.9108C24.5996 11.7545 24.3877 11.6667 24.1667 11.6667H15.8333C15.6123 11.6667 15.4004 11.7545 15.2441 11.9108C15.0878 12.0671 15 12.2791 15 12.5001V17.5001Z" stroke="#51A2FF" stroke-width="1.66667" stroke-linecap="round" stroke-linejoin="round"/>
<path d="M15.0001 17.4999H13.7501C13.1975 17.4999 12.6676 17.2804 12.2769 16.8897C11.8862 16.499 11.6667 15.9691 11.6667 15.4166C11.6667 14.8641 11.8862 14.3341 12.2769 13.9434C12.6676 13.5527 13.1975 13.3333 13.7501 13.3333H15.0001" stroke="#51A2FF" stroke-width="1.66667" stroke-linecap="round" stroke-linejoin="round"/>
<defs>
<linearGradient id="paint0_linear_5_2088" x1="0" y1="0" x2="40" y2="40" gradientUnits="userSpaceOnUse">
<stop stop-color="#2B7FFF" stop-opacity="0.2"/>
<stop offset="1" stop-color="#AD46FF" stop-opacity="0.2"/>
</linearGradient>
</defs>
</svg>
