<svg width="20" height="20" viewBox="0 0 20 20" fill="none" xmlns="http://www.w3.org/2000/svg">
<path d="M8.33325 12.2167V13.5717C8.3301 13.8572 8.25366 14.1371 8.11124 14.3846C7.96882 14.6321 7.7652 14.8388 7.51992 14.985C6.9992 15.3707 6.57562 15.8725 6.28282 16.4506C5.99003 17.0286 5.83609 17.667 5.83325 18.315" stroke="#FDC700" stroke-width="1.66667" stroke-linecap="round" stroke-linejoin="round"/>
<path d="M11.6667 12.2167V13.5717C11.6699 13.8572 11.7463 14.1371 11.8888 14.3846C12.0312 14.6321 12.2348 14.8388 12.4801 14.985C13.0008 15.3707 13.4244 15.8725 13.7172 16.4506C14.01 17.0286 14.1639 17.667 14.1667 18.315" stroke="#FDC700" stroke-width="1.66667" stroke-linecap="round" stroke-linejoin="round"/>
<path d="M15 7.50004H16.25C16.8025 7.50004 17.3324 7.28055 17.7231 6.88985C18.1138 6.49915 18.3333 5.96924 18.3333 5.41671C18.3333 4.86417 18.1138 4.33427 17.7231 3.94357C17.3324 3.55287 16.8025 3.33337 16.25 3.33337H15" stroke="#FDC700" stroke-width="1.66667" stroke-linecap="round" stroke-linejoin="round"/>
<path d="M3.33325 18.3334H16.6666" stroke="#FDC700" stroke-width="1.66667" stroke-linecap="round" stroke-linejoin="round"/>
<path d="M5 7.49996C5 8.82604 5.52678 10.0978 6.46447 11.0355C7.40215 11.9732 8.67392 12.5 10 12.5C11.3261 12.5 12.5979 11.9732 13.5355 11.0355C14.4732 10.0978 15 8.82604 15 7.49996V2.49996C15 2.27895 14.9122 2.06698 14.7559 1.9107C14.5996 1.75442 14.3877 1.66663 14.1667 1.66663H5.83333C5.61232 1.66663 5.40036 1.75442 5.24408 1.9107C5.0878 2.06698 5 2.27895 5 2.49996V7.49996Z" stroke="#FDC700" stroke-width="1.66667" stroke-linecap="round" stroke-linejoin="round"/>
<path d="M5.00008 7.50004H3.75008C3.19755 7.50004 2.66764 7.28055 2.27694 6.88985C1.88624 6.49915 1.66675 5.96924 1.66675 5.41671C1.66675 4.86417 1.88624 4.33427 2.27694 3.94357C2.66764 3.55287 3.19755 3.33337 3.75008 3.33337H5.00008" stroke="#FDC700" stroke-width="1.66667" stroke-linecap="round" stroke-linejoin="round"/>
</svg>
